<svg width="250" height="250" viewBox="0 0 100 100" xmlns="http://www.w3.org/2000/svg">
  <defs>
    <linearGradient id="goldGradient" x1="0%" y1="0%" x2="100%" y2="100%">
      <stop offset="0%" style="stop-color:#FFD700;stop-opacity:1" />
      <stop offset="100%" style="stop-color:#B8860B;stop-opacity:1" />
    </linearGradient>

    <path id="diamond" d="M0 10 L10 0 L20 10 L10 20 Z" />

    <path id="innerDiamond" d="M5 10 L10 5 L15 10 L10 15 Z" />

  </defs>

  <g transform="translate(50,50)"> 
    <g transform="translate(-25, -25) rotate(-45)"> 
        <use href="#diamond" fill="url(#goldGradient)" />
    </g>

    <g transform="translate(25, -25) rotate(-45)">
        <path d="M0 10 L10 0 L20 10 L10 20 Z M5 10 L10 5 L15 10 L10 15 Z" 
              fill="url(#goldGradient)" fill-rule="evenodd" />
    </g>

    <g transform="translate(-25, 25) rotate(-45)">
        <path d="M0 10 L10 0 L20 10 L10 20 Z M5 10 L10 5 L15 10 L10 15 Z" 
              fill="url(#goldGradient)" fill-rule="evenodd" />
    </g>

    <g transform="translate(25, 25) rotate(-45)">
        <use href="#diamond" fill="url(#goldGradient)" />
    </g>

  </g>
</svg>
