<?xml version="1.0" encoding="UTF-8"?>
<svg version="1.1" xmlns="http://www.w3.org/2000/svg" width="342" height="270">
<path d="M0 0 C112.86 0 225.72 0 342 0 C342 89.1 342 178.2 342 270 C229.14 270 116.28 270 0 270 C0 180.9 0 91.8 0 0 Z " fill="#1E1E20" transform="translate(0,0)"/>
<path d="M0 0 C2.1496582 1.1105957 2.1496582 1.1105957 4.30078125 2.67578125 C5.10507568 3.25110596 5.90937012 3.82643066 6.73803711 4.41918945 C7.58760986 5.04398193 8.43718262 5.66877441 9.3125 6.3125 C11.11151637 7.60481117 12.91100144 8.8964701 14.7109375 10.1875 C15.60393555 10.83332031 16.49693359 11.47914062 17.41699219 12.14453125 C21.05284811 14.75629921 24.7397572 17.28948973 28.4375 19.8125 C29.75021907 20.71191993 31.06272469 21.61165149 32.375 22.51171875 C32.99246094 22.93501465 33.60992187 23.35831055 34.24609375 23.79443359 C36.81676587 25.56141284 39.37657587 27.34393176 41.9375 29.125 C49.454861 34.33653705 57.02788819 39.46612836 64.59570312 44.60400391 C71.55234226 49.32877373 78.49507471 54.07261414 85.40551758 58.86474609 C88.60677736 61.09066015 88.60677736 61.09066015 92 63 C91.85193937 67.88600068 89.35012156 70.03927518 86 73.20703125 C84.16599602 74.85118716 82.30896068 76.46127179 80.4375 78.0625 C75.80263588 82.04685687 71.54794721 86.39723496 67.27514648 90.76196289 C64.34057968 93.74003574 61.36216157 96.59045083 58.1875 99.3125 C53.20029152 103.61745067 48.62096475 108.30902063 44 113 C34.5773032 122.56546494 34.5773032 122.56546494 29.6875 127.125 C28.79611328 127.96417969 28.79611328 127.96417969 27.88671875 128.8203125 C25.39027412 130.38123647 23.89873535 130.38063916 21 130 C19.08154297 129.01293945 19.08154297 129.01293945 17.2421875 127.61328125 C16.54416016 127.09378906 15.84613281 126.57429688 15.12695312 126.0390625 C14.38380859 125.46929687 13.64066406 124.89953125 12.875 124.3125 C11.25946497 123.10845669 9.64222282 121.90670113 8.0234375 120.70703125 C7.19295898 120.08908691 6.36248047 119.47114258 5.50683594 118.83447266 C1.57259547 115.95544238 -2.46041431 113.22824322 -6.5 110.5 C-13.50465161 105.74893806 -20.38988499 100.85868274 -27.23046875 95.875 C-32.58890001 91.9847602 -38.02112967 88.21832368 -43.5 84.5 C-50.53267156 79.72511054 -57.46896023 74.83779344 -64.33374023 69.82446289 C-68.14354521 67.04559106 -71.97596569 64.31459532 -75.87109375 61.65625 C-77.05131104 60.84522827 -77.05131104 60.84522827 -78.25537109 60.01782227 C-79.75850759 58.98821353 -81.26770908 57.96738645 -82.78369141 56.95678711 C-83.78988525 56.2646814 -83.78988525 56.2646814 -84.81640625 55.55859375 C-85.40881104 55.15954834 -86.00121582 54.76050293 -86.61157227 54.34936523 C-88.33706112 52.67242187 -88.61715363 51.34023771 -89 49 C-82.25595137 44.35134413 -75.29804812 40.18561285 -68.1875 36.125 C-67.06384033 35.48006592 -65.94018066 34.83513184 -64.7824707 34.1706543 C-61.79672405 32.45730885 -58.80867264 30.7480278 -55.81982422 29.0401001 C-54.01232066 28.00704174 -52.20529765 26.97314808 -50.3984375 25.93896484 C-49.20312959 25.2548748 -48.00781709 24.57079275 -46.8125 23.88671875 C-46.22193817 23.54874268 -45.63137634 23.2107666 -45.0229187 22.86254883 C-42.07188372 21.17431164 -39.11955415 19.48841153 -36.16455078 17.80712891 C-30.67033403 14.67917581 -25.18928027 11.53364789 -19.7421875 8.32421875 C-18.77837158 7.76049561 -17.81455566 7.19677246 -16.8215332 6.6159668 C-15.03620514 5.57029947 -13.25572084 4.51629877 -11.48120117 3.45239258 C-10.69463135 2.99372803 -9.90806152 2.53506348 -9.09765625 2.0625 C-8.08457397 1.46115234 -8.08457397 1.46115234 -7.05102539 0.84765625 C-4.48048819 -0.21470599 -2.76169743 -0.3254896 0 0 Z " fill="#FBA832" transform="translate(176,0)"/>
<path d="M0 0 C2.9839128 1.31272787 5.44001497 2.90761755 8.09375 4.80859375 C8.92362427 5.39761475 8.92362427 5.39761475 9.77026367 5.99853516 C11.65630266 7.34190893 13.53193941 8.69890868 15.40625 10.05859375 C16.83590763 11.09248922 18.26559628 12.1263418 19.6953125 13.16015625 C21.9812168 14.81399604 24.26671539 16.46837769 26.55078125 18.12475586 C32.63672209 22.52928988 38.80144195 26.80493466 45.00390625 31.04296875 C58.91613115 40.55349414 72.73623728 50.20291733 86.40625 60.05859375 C86.40234375 62.18359375 86.40234375 62.18359375 85.40625 65.05859375 C82.99046507 67.37953262 80.23843717 69.18545272 77.46875 71.05859375 C75.81353912 72.21446727 74.15859854 73.37072796 72.50390625 74.52734375 C71.6545752 75.11386719 70.80524414 75.70039063 69.93017578 76.3046875 C66.04927278 79.00157347 62.22954992 81.78096467 58.40625 84.55859375 C56.90530079 85.64371743 55.40399749 86.7283515 53.90234375 87.8125 C53.15968262 88.34891113 52.41702148 88.88532227 51.65185547 89.43798828 C49.41619555 91.05141626 47.17900484 92.66269953 44.94140625 94.2734375 C37.08625 99.93131126 29.25988277 105.62531616 21.46875 111.37109375 C20.67073975 111.95697266 19.87272949 112.54285156 19.05053711 113.14648438 C15.65055819 115.6455595 12.26385204 118.15235921 8.94140625 120.75390625 C7.98105469 121.49382812 7.02070313 122.23375 6.03125 122.99609375 C4.84402344 123.93775391 4.84402344 123.93775391 3.6328125 124.8984375 C1.40625 126.05859375 1.40625 126.05859375 -1.0703125 125.9375 C-3.89569723 124.95342637 -6.09404854 123.70473861 -8.59375 122.05859375 C-9.55925781 121.424375 -10.52476562 120.79015625 -11.51953125 120.13671875 C-15.67890604 117.32504481 -19.81519895 114.48274125 -23.93237305 111.60961914 C-33.58908117 104.87463831 -43.30931003 98.23324198 -53.07421875 91.65625 C-54.26832619 90.85182968 -54.26832619 90.85182968 -55.48655701 90.03115845 C-58.75255237 87.83179492 -62.01906095 85.6332046 -65.28735352 83.43725586 C-67.71761321 81.80384939 -70.14604396 80.16775365 -72.57421875 78.53125 C-73.30754929 78.03955826 -74.04087982 77.54786652 -74.7964325 77.04127502 C-82.78770143 71.64939882 -82.78770143 71.64939882 -85.59375 69.05859375 C-85.59375 68.06859375 -85.59375 67.07859375 -85.59375 66.05859375 C-83.75557223 64.42194378 -81.9550225 62.99536949 -79.96875 61.55859375 C-78.76371789 60.65966464 -77.55931097 59.75989697 -76.35546875 58.859375 C-75.73075684 58.39611816 -75.10604492 57.93286133 -74.46240234 57.45556641 C-71.53236124 55.2651176 -68.65498371 53.0096483 -65.78125 50.74609375 C-65.20834229 50.29572754 -64.63543457 49.84536133 -64.04516602 49.38134766 C-54.8398782 42.12316151 -45.78549072 34.67596167 -36.71875 27.24609375 C-35.86539063 26.55 -35.01203125 25.85390625 -34.1328125 25.13671875 C-32.349333 23.67700938 -30.57397254 22.20735094 -28.8046875 20.73046875 C-27.91007812 19.993125 -27.01546875 19.25578125 -26.09375 18.49609375 C-25.2996875 17.83480469 -24.505625 17.17351562 -23.6875 16.4921875 C-21.59375 15.05859375 -21.59375 15.05859375 -18.59375 15.05859375 C-18.32731689 14.45700439 -18.06088379 13.85541504 -17.78637695 13.2355957 C-15.86482022 9.72801713 -12.88315018 7.6926181 -9.78125 5.24609375 C-9.16443359 4.73111328 -8.54761719 4.21613281 -7.91210938 3.68554688 C-3.36516904 0.07602039 -3.36516904 0.07602039 0 0 Z " fill="#FBA832" transform="translate(171.59375,143.94140625)"/>
<path d="M0 0 C5.21793431 0.55310104 9.27756542 3.13993405 13.75 5.6875 C14.95281616 6.36317017 14.95281616 6.36317017 16.17993164 7.05249023 C21.05460286 9.81558012 25.80542562 12.68548534 30.37109375 15.94140625 C32.13476012 17.18480927 32.13476012 17.18480927 35 18 C35 18.66 35 19.32 35 20 C36.65 20.33 38.3 20.66 40 21 C40 21.66 40 22.32 40 23 C41.65 23.33 43.3 23.66 45 24 C45 24.66 45 25.32 45 26 C45.71172363 26.10272217 46.42344727 26.20544434 47.15673828 26.3112793 C50.36932775 27.08946193 52.65332156 28.33143126 55.4921875 30.01953125 C56.52730469 30.62990234 57.56242187 31.24027344 58.62890625 31.86914062 C59.70011719 32.51044922 60.77132812 33.15175781 61.875 33.8125 C63.99730589 35.06916233 66.11969949 36.32567655 68.2421875 37.58203125 C69.23573242 38.17322754 70.22927734 38.76442383 71.25292969 39.37353516 C74.48217714 41.28548384 77.73344974 43.15267742 81 45 C80.54684891 49.90677664 79.42753888 52.18260347 76 55.6875 C72.73466315 59.1382503 69.61032699 62.61586766 66.625 66.3125 C63.40221542 70.29227716 60.1318889 74.22569257 56.8125 78.125 C52.50838418 83.18552276 48.27459784 88.30020481 44.0625 93.4375 C38.26647292 100.50168097 32.36933784 107.47046197 26.39453125 114.38378906 C23.92205125 117.24930335 21.46148729 120.12504299 19 123 C14.19981561 122.44719566 10.6027201 120.22111026 6.5625 117.75 C5.03132917 116.8318992 3.50007511 115.91393719 1.96875 114.99609375 C1.15921875 114.50737793 0.3496875 114.01866211 -0.484375 113.51513672 C-4.78768732 110.92329314 -9.11295066 108.36869711 -13.4375 105.8125 C-14.34322754 105.27584717 -15.24895508 104.73919434 -16.18212891 104.1862793 C-21.39145782 101.10632097 -26.61837341 98.05902393 -31.8671875 95.046875 C-32.44608231 94.71439255 -33.02497711 94.3819101 -33.62141418 94.03935242 C-36.43898723 92.42185814 -39.25872904 90.80834505 -42.08178711 89.20043945 C-48.21751232 85.6856146 -54.18160488 82.02003239 -60 78 C-59.23945261 73.19582514 -57.32598598 70.60318245 -54.125 67.0625 C-53.1149636 65.90949645 -52.10721923 64.75448176 -51.1015625 63.59765625 C-50.5849707 63.00484863 -50.06837891 62.41204102 -49.53613281 61.80126953 C-47.09643661 58.94048145 -44.79951031 55.97376225 -42.5 53 C-38.9339166 48.40823946 -35.28161387 43.91591013 -31.5 39.5 C-27.29565803 34.58650088 -23.25597618 29.56936167 -19.28540039 24.46557617 C-15.01835222 18.99025476 -10.64034838 13.60851444 -6.23876953 8.2409668 C-5.71524902 7.60070557 -5.19172852 6.96044434 -4.65234375 6.30078125 C-3.95612915 5.45253784 -3.95612915 5.45253784 -3.24584961 4.5871582 C-2.08928002 3.11373886 -1.03902584 1.55853877 0 0 Z " fill="#FAA732" transform="translate(60,69)"/>
<path d="M0 0 C4.72465368 0.36277048 8.03552152 2.74405333 11.8125 5.375 C12.4626709 5.81835693 13.1128418 6.26171387 13.78271484 6.71850586 C15.86048063 8.13805572 17.93024533 9.56880208 20 11 C21.36016813 11.931733 22.72084109 12.8627295 24.08203125 13.79296875 C31.21299284 18.67313455 38.31400968 23.59672993 45.41015625 28.52734375 C48.25868058 30.49799486 51.12565776 32.44032507 53.99609375 34.37890625 C55.29776489 35.2608667 55.29776489 35.2608667 56.62573242 36.16064453 C58.35383982 37.33072227 60.08441642 38.49716277 61.81762695 39.65966797 C62.60484131 40.19350098 63.39205566 40.72733398 64.203125 41.27734375 C64.91114258 41.75421631 65.61916016 42.23108887 66.34863281 42.72241211 C68 44 68 44 69 46 C68.00742187 46.67804688 67.01484375 47.35609375 65.9921875 48.0546875 C53.98242055 56.2750299 42.11239768 64.66588831 30.40234375 73.30859375 C28 75 28 75 25.31640625 76.59765625 C22.91585719 77.9250138 22.91585719 77.9250138 21 80 C12.64516129 87 12.64516129 87 9 87 C8.67 87.66 8.34 88.32 8 89 C2.89473684 93.06100478 2.89473684 93.06100478 -0.75 92.8125 C-3 92 -3 92 -5 91 C-5 90.34 -5 89.68 -5 89 C-6.670625 88.62875 -6.670625 88.62875 -8.375 88.25 C-12 87 -12 87 -13.125 85 C-13.41375 84.34 -13.7025 83.68 -14 83 C-16.40952023 81.75285597 -16.40952023 81.75285597 -19 81 C-22 80 -22 80 -23.875 78.0625 C-26.1706766 75.8343433 -28.06477425 75.15864175 -31 74 C-31.66 73.01 -32.32 72.02 -33 71 C-34.99145391 69.98308736 -36.99187074 68.98357352 -39 68 C-40.01801357 67.01834406 -41.0246803 66.02408568 -42 65 C-42.66 65 -43.32 65 -44 65 C-45.14755761 63.8183776 -46.294046 62.63569761 -47.43505859 61.44775391 C-50.39011719 58.71397895 -53.87786096 56.7593332 -57.3125 54.6875 C-58.05306641 54.23310547 -58.79363281 53.77871094 -59.55664062 53.31054688 C-61.36728686 52.20079596 -63.18312295 51.09952019 -65 50 C-64.15192516 45.70606317 -62.61425651 44.53766946 -59 42 C-56.90324308 40.69298203 -54.79968593 39.40432591 -52.671875 38.1484375 C-50.84399588 37.09135286 -50.84399588 37.09135286 -50 35 C-48.33333333 34.33333333 -46.66666667 33.66666667 -45 33 C-44.67 32.34 -44.34 31.68 -44 31 C-43.01 31 -42.02 31 -41 31 C-41 30.34 -41 29.68 -41 29 C-40.38125 28.71125 -39.7625 28.4225 -39.125 28.125 C-36.86674235 27.06279958 -36.86674235 27.06279958 -35 25 C-33.64602712 24.09735141 -32.29063212 23.19678995 -30.9296875 22.3046875 C-28.64059252 20.7569998 -26.41666283 19.13291259 -24.1875 17.5 C-18.3684221 13.24233443 -12.47790887 9.08962258 -6.57495117 4.94921875 C-5.86701416 4.45164062 -5.15907715 3.9540625 -4.4296875 3.44140625 C-3.79272949 2.99482666 -3.15577148 2.54824707 -2.49951172 2.08813477 C-1.02757797 1.07991316 -1.02757797 1.07991316 0 0 Z " fill="#FDA932" transform="translate(273,94)"/>
<path d="M0 0 C0.64880127 0.45503906 1.29760254 0.91007812 1.96606445 1.37890625 C2.72773926 1.85996826 3.48941406 2.34103027 4.27416992 2.83666992 C5.11866699 3.4010376 5.96316406 3.96540527 6.83325195 4.546875 C7.79094482 5.1857666 8.7486377 5.8246582 9.73535156 6.48291016 C11.27267944 7.51424072 11.27267944 7.51424072 12.84106445 8.56640625 C13.90010986 9.27458496 14.95915527 9.98276367 16.05029297 10.71240234 C24.25329869 16.20706962 32.42230811 21.75116846 40.5690918 27.32885742 C46.00828751 31.05274271 51.47213408 34.73621863 56.96606445 38.37890625 C50.01984573 46.82701011 42.27625734 54.51663597 33.95825195 61.609375 C30.12057531 65.01813484 26.55666694 68.71349954 22.96606445 72.37890625 C15.42174107 68.58678603 8.71783826 63.73463756 1.91235352 58.78662109 C-1.42499161 56.37278115 -4.79221259 54.00151346 -8.15893555 51.62890625 C-8.85688232 51.13624268 -9.5548291 50.6435791 -10.27392578 50.13598633 C-14.2687826 47.31859884 -18.27132824 44.51249898 -22.2800293 41.71484375 C-23.60719971 40.78816895 -23.60719971 40.78816895 -24.96118164 39.84277344 C-26.66763223 38.65202063 -28.37493494 37.46248766 -30.08325195 36.27441406 C-35.1454831 32.74252876 -40.12245323 29.11768656 -45.03393555 25.37890625 C-41.60841925 22.52072766 -38.15310193 20.16274029 -34.2800293 17.953125 C-32.62583984 17.00469727 -32.62583984 17.00469727 -30.93823242 16.03710938 C-29.79418945 15.38677734 -28.65014648 14.73644531 -27.47143555 14.06640625 C-25.21997221 12.77892779 -22.96866936 11.49116862 -20.7175293 10.203125 C-19.61135254 9.57712402 -18.50517578 8.95112305 -17.36547852 8.30615234 C-15.10684481 6.99956767 -12.87160742 5.6518415 -10.65942383 4.26806641 C-9.06783447 3.2807251 -9.06783447 3.2807251 -7.4440918 2.2734375 C-6.49800049 1.66991455 -5.55190918 1.0663916 -4.57714844 0.44458008 C-2.03393555 -0.62109375 -2.03393555 -0.62109375 0 0 Z " fill="#1E1E20" transform="translate(174.033935546875,27.62109375)"/>
<path d="M0 0 C3.33211879 1.24392441 5.97591785 3.10405109 8.79296875 5.22265625 C10.0324959 6.13158703 11.27208227 7.04043708 12.51171875 7.94921875 C13.17042969 8.43680664 13.82914063 8.92439453 14.5078125 9.42675781 C17.47618106 11.61434041 20.46988094 13.76614131 23.46264648 15.92016602 C30.86148643 21.24624556 38.23898283 26.60193634 45.60546875 31.97265625 C41.73414387 36.06029793 37.5750463 39.39422576 33.04296875 42.72265625 C31.60670945 43.78767765 30.17051201 44.85278246 28.734375 45.91796875 C28.03070801 46.4377832 27.32704102 46.95759766 26.60205078 47.49316406 C24.85541065 48.78744618 23.1164215 50.09069176 21.3828125 51.40234375 C13.89059926 57.06940141 6.26962138 62.54199189 -1.39453125 67.97265625 C-17.08876966 58.19591757 -32.45638107 47.86871874 -47.39453125 36.97265625 C-43.32256107 32.73367167 -38.94384929 29.00198941 -34.39453125 25.28515625 C-33.64486084 24.6701123 -32.89519043 24.05506836 -32.12280273 23.42138672 C-26.60885482 18.91706795 -21.0187471 14.53096621 -15.3359375 10.2421875 C-11.64117991 7.39138517 -8.1130716 4.35972523 -4.61328125 1.2734375 C-2.39453125 -0.02734375 -2.39453125 -0.02734375 0 0 Z " fill="#1E1E20" transform="translate(172.39453125,174.02734375)"/>
<path d="M0 0 C4.73160616 1.71123306 9.00058428 4.10811672 13.375 6.5625 C14.5513501 7.22197632 14.5513501 7.22197632 15.75146484 7.89477539 C18.17101032 9.25732556 20.58596327 10.62771751 23 12 C23.75990234 12.42893555 24.51980469 12.85787109 25.30273438 13.29980469 C27.41800265 14.49932796 29.52294067 15.71500945 31.625 16.9375 C32.27001465 17.30238525 32.9150293 17.66727051 33.57958984 18.04321289 C35.3515625 19.08984375 35.3515625 19.08984375 38 21 C38 24.92694923 36.76505737 25.83813251 34.25 28.8125 C33.01636719 30.28009766 33.01636719 30.28009766 31.7578125 31.77734375 C30.83942967 32.85232178 29.92012897 33.9265162 29 35 C28.52916992 35.55187988 28.05833984 36.10375977 27.57324219 36.67236328 C25.08426055 39.58952989 22.58791474 42.50022426 20.0859375 45.40625 C15.3544284 50.90674241 10.67917301 56.45499577 6 62 C1.77552231 61.40583454 -1.22443666 59.94114741 -4.89453125 57.796875 C-6.01537109 57.14589844 -7.13621094 56.49492187 -8.29101562 55.82421875 C-9.46487607 55.13286737 -10.63870399 54.44146076 -11.8125 53.75 C-12.97424751 53.07359686 -14.13635405 52.39780995 -15.29882812 51.72265625 C-21.2621045 48.24379359 -27.17108646 44.69953184 -33 41 C-28.21416348 34.4847219 -23.14356317 28.23539747 -18 22 C-16.49915322 20.16735981 -14.999145 18.33403254 -13.5 16.5 C-9 11 -4.5 5.5 0 0 Z " fill="#1E1E20" transform="translate(67,100)"/>
<path d="M0 0 C6.77008767 3.72524924 13.04327239 8.05922522 19.3125 12.5625 C20.08899902 13.11639404 20.86549805 13.67028809 21.66552734 14.2409668 C25.79920882 17.23652405 29.51597849 20.26562964 33 24 C31.23569031 25.34195372 29.4633209 26.67331668 27.6875 28 C26.70136719 28.7425 25.71523438 29.485 24.69921875 30.25 C22 32 22 32 19 32 C18.67 32.99 18.34 33.98 18 35 C15.90365138 36.67188134 13.83952229 38.19126565 11.625 39.6875 C11.03460938 40.10322266 10.44421875 40.51894531 9.8359375 40.94726562 C5.38465979 44 5.38465979 44 2 44 C1.67 44.99 1.34 45.98 1 47 C-1.25 47.75 -1.25 47.75 -4 48 C-5.38176866 46.7169291 -6.70317626 45.36886951 -8 44 C-9.35242591 43.19021411 -10.7310881 42.4235833 -12.125 41.6875 C-20.33963949 37.29551453 -28.55959593 31.7793727 -35 25 C-30.5 21 -30.5 21 -26 21 C-25.34 19.68 -24.68 18.36 -24 17 C-23.01 17 -22.02 17 -21 17 C-20.67 16.01 -20.34 15.02 -20 14 C-18.4765625 12.61328125 -18.4765625 12.61328125 -16.625 11.3125 C-16.01914062 10.87550781 -15.41328125 10.43851563 -14.7890625 9.98828125 C-13 9 -13 9 -10 9 C-10 8.34 -10 7.68 -10 7 C-7.8125 5.2734375 -7.8125 5.2734375 -5 3.375 C-4.071875 2.74335937 -3.14375 2.11171875 -2.1875 1.4609375 C-1.465625 0.97882813 -0.74375 0.49671875 0 0 Z " fill="#212020" transform="translate(275,116)"/>
</svg>
